<mxfile host="app.diagrams.net" modified="2022-01-09T09:34:34.678Z" agent="5.0 (Windows NT 10.0; Win64; x64) AppleWebKit/537.36 (KHTML, like Gecko) Chrome/97.0.4692.71 Safari/537.36" etag="vKbwTq0RpUjqoNfBYTad" version="16.2.4" type="github">
  <diagram id="miAjyPiUo89_DjptYyTB" name="Page-1">
    <mxGraphModel dx="1038" dy="547" grid="0" gridSize="10" guides="1" tooltips="1" connect="1" arrows="1" fold="1" page="1" pageScale="1" pageWidth="827" pageHeight="1169" math="0" shadow="0">
      <root>
        <mxCell id="0" />
        <mxCell id="1" parent="0" />
        <mxCell id="jEghtuljaZnkEx96sDsz-1" value="" style="shape=image;html=1;verticalAlign=top;verticalLabelPosition=bottom;labelBackgroundColor=#ffffff;imageAspect=0;aspect=fixed;image=https://cdn0.iconfinder.com/data/icons/kameleon-free-pack/110/Hacker-128.png" vertex="1" parent="1">
          <mxGeometry x="10" y="188.5" width="90" height="90" as="geometry" />
        </mxCell>
        <mxCell id="jEghtuljaZnkEx96sDsz-2" value="" style="shape=image;html=1;verticalAlign=top;verticalLabelPosition=bottom;labelBackgroundColor=#ffffff;imageAspect=0;aspect=fixed;image=https://cdn0.iconfinder.com/data/icons/kameleon-free-pack/110/Hacker-128.png" vertex="1" parent="1">
          <mxGeometry x="20" y="130" width="80" height="80" as="geometry" />
        </mxCell>
        <mxCell id="jEghtuljaZnkEx96sDsz-6" value="" style="verticalLabelPosition=bottom;sketch=0;aspect=fixed;html=1;verticalAlign=top;strokeColor=none;align=center;outlineConnect=0;shape=mxgraph.citrix.firewall;" vertex="1" parent="1">
          <mxGeometry x="340" y="170" width="56.45" height="70" as="geometry" />
        </mxCell>
        <mxCell id="jEghtuljaZnkEx96sDsz-7" value="" style="sketch=0;pointerEvents=1;shadow=0;dashed=0;html=1;strokeColor=none;fillColor=#505050;labelPosition=center;verticalLabelPosition=bottom;verticalAlign=top;outlineConnect=0;align=center;shape=mxgraph.office.servers.web_server_ghosted;" vertex="1" parent="1">
          <mxGeometry x="327.45" y="360" width="81.55" height="87" as="geometry" />
        </mxCell>
        <mxCell id="jEghtuljaZnkEx96sDsz-8" value="" style="aspect=fixed;perimeter=ellipsePerimeter;html=1;align=center;shadow=0;dashed=0;spacingTop=3;image;image=img/lib/active_directory/internet_globe.svg;" vertex="1" parent="1">
          <mxGeometry x="170" y="179.25" width="50" height="50" as="geometry" />
        </mxCell>
        <mxCell id="jEghtuljaZnkEx96sDsz-9" value="" style="verticalLabelPosition=bottom;sketch=0;aspect=fixed;html=1;verticalAlign=top;strokeColor=none;align=center;outlineConnect=0;shape=mxgraph.citrix.switch;" vertex="1" parent="1">
          <mxGeometry x="500" y="188.5" width="69.83" height="31.5" as="geometry" />
        </mxCell>
        <mxCell id="jEghtuljaZnkEx96sDsz-10" value="" style="endArrow=none;html=1;rounded=0;" edge="1" parent="1" source="jEghtuljaZnkEx96sDsz-6" target="jEghtuljaZnkEx96sDsz-9">
          <mxGeometry width="50" height="50" relative="1" as="geometry">
            <mxPoint x="390" y="310" as="sourcePoint" />
            <mxPoint x="440" y="260" as="targetPoint" />
          </mxGeometry>
        </mxCell>
        <mxCell id="jEghtuljaZnkEx96sDsz-11" value="" style="endArrow=none;html=1;rounded=0;" edge="1" parent="1" source="jEghtuljaZnkEx96sDsz-7" target="jEghtuljaZnkEx96sDsz-6">
          <mxGeometry width="50" height="50" relative="1" as="geometry">
            <mxPoint x="390" y="310" as="sourcePoint" />
            <mxPoint x="440" y="260" as="targetPoint" />
          </mxGeometry>
        </mxCell>
        <mxCell id="jEghtuljaZnkEx96sDsz-12" value="" style="endArrow=none;html=1;rounded=0;" edge="1" parent="1" source="jEghtuljaZnkEx96sDsz-8" target="jEghtuljaZnkEx96sDsz-6">
          <mxGeometry width="50" height="50" relative="1" as="geometry">
            <mxPoint x="390" y="310" as="sourcePoint" />
            <mxPoint x="440" y="260" as="targetPoint" />
          </mxGeometry>
        </mxCell>
        <mxCell id="jEghtuljaZnkEx96sDsz-15" value="" style="endArrow=none;html=1;rounded=0;entryX=0;entryY=0.5;entryDx=0;entryDy=0;entryPerimeter=0;" edge="1" parent="1" source="jEghtuljaZnkEx96sDsz-9">
          <mxGeometry width="50" height="50" relative="1" as="geometry">
            <mxPoint x="390" y="310" as="sourcePoint" />
            <mxPoint x="670" y="204.25" as="targetPoint" />
          </mxGeometry>
        </mxCell>
        <mxCell id="jEghtuljaZnkEx96sDsz-17" value="" style="endArrow=none;html=1;rounded=0;entryX=0;entryY=0.5;entryDx=0;entryDy=0;entryPerimeter=0;" edge="1" parent="1" source="jEghtuljaZnkEx96sDsz-9">
          <mxGeometry width="50" height="50" relative="1" as="geometry">
            <mxPoint x="390" y="310" as="sourcePoint" />
            <mxPoint x="670" y="95" as="targetPoint" />
            <Array as="points">
              <mxPoint x="536" y="95" />
            </Array>
          </mxGeometry>
        </mxCell>
        <mxCell id="jEghtuljaZnkEx96sDsz-18" value="" style="endArrow=none;html=1;rounded=0;" edge="1" parent="1" target="jEghtuljaZnkEx96sDsz-9">
          <mxGeometry width="50" height="50" relative="1" as="geometry">
            <mxPoint x="670" y="330" as="sourcePoint" />
            <mxPoint x="440" y="260" as="targetPoint" />
            <Array as="points">
              <mxPoint x="535" y="330" />
            </Array>
          </mxGeometry>
        </mxCell>
        <mxCell id="jEghtuljaZnkEx96sDsz-19" value="" style="endArrow=classic;html=1;rounded=0;" edge="1" parent="1">
          <mxGeometry width="50" height="50" relative="1" as="geometry">
            <mxPoint x="100" y="230" as="sourcePoint" />
            <mxPoint x="170" y="230" as="targetPoint" />
          </mxGeometry>
        </mxCell>
        <mxCell id="jEghtuljaZnkEx96sDsz-20" value="" style="endArrow=classic;html=1;rounded=0;exitX=1;exitY=0.75;exitDx=0;exitDy=0;" edge="1" parent="1" source="jEghtuljaZnkEx96sDsz-2">
          <mxGeometry width="50" height="50" relative="1" as="geometry">
            <mxPoint x="390" y="310" as="sourcePoint" />
            <mxPoint x="170" y="190" as="targetPoint" />
          </mxGeometry>
        </mxCell>
        <mxCell id="jEghtuljaZnkEx96sDsz-22" value="&lt;b&gt;&lt;font style=&quot;font-size: 15px&quot;&gt;LAN&lt;/font&gt;&lt;/b&gt;" style="text;html=1;align=center;verticalAlign=middle;resizable=0;points=[];autosize=1;strokeColor=none;fillColor=none;" vertex="1" parent="1">
          <mxGeometry x="580" y="240" width="50" height="20" as="geometry" />
        </mxCell>
        <mxCell id="jEghtuljaZnkEx96sDsz-23" value="&lt;b&gt;DMZ&lt;/b&gt;" style="text;html=1;align=center;verticalAlign=middle;resizable=0;points=[];autosize=1;strokeColor=none;fillColor=none;fontSize=15;" vertex="1" parent="1">
          <mxGeometry x="385" y="340" width="50" height="20" as="geometry" />
        </mxCell>
        <mxCell id="jEghtuljaZnkEx96sDsz-24" value="&lt;b&gt;INTERNAL&lt;/b&gt;" style="text;html=1;align=center;verticalAlign=middle;resizable=0;points=[];autosize=1;strokeColor=none;fillColor=none;fontSize=15;" vertex="1" parent="1">
          <mxGeometry x="443.22" y="168.5" width="90" height="20" as="geometry" />
        </mxCell>
        <mxCell id="jEghtuljaZnkEx96sDsz-25" value="&lt;b&gt;EXTERNAL&lt;/b&gt;" style="text;html=1;align=center;verticalAlign=middle;resizable=0;points=[];autosize=1;strokeColor=none;fillColor=none;fontSize=15;" vertex="1" parent="1">
          <mxGeometry x="210" y="169.25" width="100" height="20" as="geometry" />
        </mxCell>
        <mxCell id="jEghtuljaZnkEx96sDsz-26" value="&lt;b&gt;Pfsense/&amp;nbsp; Suricata&lt;/b&gt;" style="text;html=1;align=center;verticalAlign=middle;resizable=0;points=[];autosize=1;strokeColor=none;fillColor=none;fontSize=15;" vertex="1" parent="1">
          <mxGeometry x="293.22" y="240" width="150" height="20" as="geometry" />
        </mxCell>
        <mxCell id="jEghtuljaZnkEx96sDsz-27" value="&lt;b&gt;Attacker&lt;/b&gt;" style="text;html=1;align=center;verticalAlign=middle;resizable=0;points=[];autosize=1;strokeColor=none;fillColor=none;fontSize=15;" vertex="1" parent="1">
          <mxGeometry y="300" width="80" height="20" as="geometry" />
        </mxCell>
        <mxCell id="jEghtuljaZnkEx96sDsz-28" value="" style="fontColor=#0066CC;verticalAlign=top;verticalLabelPosition=bottom;labelPosition=center;align=center;html=1;outlineConnect=0;fillColor=#CCCCCC;strokeColor=#6881B3;gradientColor=none;gradientDirection=north;strokeWidth=2;shape=mxgraph.networks.pc;fontSize=15;" vertex="1" parent="1">
          <mxGeometry x="670" y="70" width="80" height="60" as="geometry" />
        </mxCell>
        <mxCell id="jEghtuljaZnkEx96sDsz-29" value="" style="fontColor=#0066CC;verticalAlign=top;verticalLabelPosition=bottom;labelPosition=center;align=center;html=1;outlineConnect=0;fillColor=#CCCCCC;strokeColor=#6881B3;gradientColor=none;gradientDirection=north;strokeWidth=2;shape=mxgraph.networks.pc;fontSize=15;" vertex="1" parent="1">
          <mxGeometry x="670" y="168.5" width="80" height="51.5" as="geometry" />
        </mxCell>
        <mxCell id="jEghtuljaZnkEx96sDsz-30" value="" style="fontColor=#0066CC;verticalAlign=top;verticalLabelPosition=bottom;labelPosition=center;align=center;html=1;outlineConnect=0;fillColor=#CCCCCC;strokeColor=#6881B3;gradientColor=none;gradientDirection=north;strokeWidth=2;shape=mxgraph.networks.pc;fontSize=15;" vertex="1" parent="1">
          <mxGeometry x="670" y="290" width="80" height="60" as="geometry" />
        </mxCell>
      </root>
    </mxGraphModel>
  </diagram>
</mxfile>
